<svg xmlns="http://www.w3.org/2000/svg" viewBox="0 0 600 600"><defs><style>.cls-1{fill:#fff;}</style></defs><title>express</title><g id="about_PI" data-name="about PI"><path class="cls-1" d="M600,465c-21.8,5.54-35.29.24-47.39-17.93l-86.05-119-12.44-16.48L353.63,447.5c-11.48,16.35-23.53,23.47-44.95,17.68L437.36,292.44l-119.81-156c20.61-4,34.84-2,47.49,16.48l89.25,120.54L544.2,153.55C555.72,137.2,568.1,131,588.78,137L542.33,198.6l-62.94,82c-7.49,9.36-6.46,15.77.43,24.82ZM.13,289l10.53-51.77c28.66-102.46,146.1-145,227.1-81.73,47.33,37.24,59.09,89.91,56.75,148.91H27.71C23.7,410.63,100.14,474.73,197.6,442c34.18-11.48,54.32-38.25,64.39-71.74,5.12-16.78,13.58-19.4,29.36-14.61-8.06,41.89-26.23,76.88-64.63,98.77-57.37,32.78-139.26,22.18-182.34-23.37-25.66-26.43-36.27-59.93-41-95.74C2.61,329.41,1.11,323.77,0,318.1Q.13,303.57.13,289Zm28.68-3.32H269.92c-1.57-76.79-49.39-131.34-114.75-131.81C83.43,153.32,31.92,206.57,28.81,285.69Z"/></g></svg>