<svg xmlns="http://www.w3.org/2000/svg" viewBox="0 0 600 600"><defs><style>.cls-1{fill:#fff;}</style></defs><title>github</title><g id="about_PI" data-name="about PI"><path class="cls-1" d="M299.76.14C134,.14-.47,134.57-.47,300.38c0,132.65,86,245.19,205.33,284.9,15,2.77,19.84-6.53,19.84-14.44V515c-83.51,18.16-100.9-35.43-100.9-35.43-13.66-34.7-33.35-43.94-33.35-43.94-27.25-18.64,2.08-18.24,2.08-18.24,30.14,2.11,46,31,46,31,26.77,45.89,70.23,32.63,87.37,24.95,2.67-19.39,10.45-32.65,19.06-40.13-66.68-7.64-136.78-33.38-136.78-148.4,0-32.8,11.73-59.57,30.92-80.58C136,196.54,125.73,166,142,124.66c0,0,25.22-8,82.59,30.78a284.51,284.51,0,0,1,150.34,0c57.32-38.83,82.49-30.78,82.49-30.78,16.34,41.36,6.06,71.91,3,79.47,19.26,21,30.89,47.81,30.89,80.58,0,115.32-70.23,140.71-137.08,148.15,10.76,9.3,20.59,27.57,20.59,55.59v82.39c0,8,4.81,17.36,20,14.41C514.08,545.49,600,433,600,300.38,600,134.57,465.57.14,299.76.14Z"/></g></svg>